<?xml version="1.0" standalone="no"?>
<!DOCTYPE svg PUBLIC "-//W3C//DTD SVG 20010904//EN"
 "http://www.w3.org/TR/2001/REC-SVG-20010904/DTD/svg10.dtd">
<svg version="1.0" xmlns="http://www.w3.org/2000/svg"
 width="260.000000pt" height="260.000000pt" viewBox="0 0 260.000000 260.000000"
 preserveAspectRatio="xMidYMid meet">
<metadata>
Created by potrace 1.11, written by Peter Selinger 2001-2013
</metadata>
<g transform="translate(0.000000,260.000000) scale(0.100000,-0.100000)"
fill="#000000" stroke="none">
<path d="M1055 2302 l-220 -128 -2 -112 -2 -112 94 -206 c83 -184 92 -210 84
-238 -74 -248 -180 -631 -183 -666 -3 -25 -8 -75 -11 -111 l-6 -66 288 -215
c158 -117 309 -229 334 -247 l47 -33 43 20 c24 10 70 30 102 43 51 20 66 33
122 108 36 46 64 86 62 87 -1 2 -57 -15 -125 -37 l-122 -40 -247 182 c-137
100 -292 214 -345 253 -54 39 -98 77 -98 83 0 17 132 486 139 495 4 4 148 9
321 10 l314 3 26 83 27 82 -31 1 c-17 0 -161 1 -320 2 l-289 2 -28 60 c-97
210 -159 359 -152 365 9 8 377 222 434 253 l38 20 117 -51 c65 -29 118 -51
120 -50 1 2 -22 43 -52 93 l-54 90 -97 52 c-54 29 -100 53 -103 52 -3 0 -104
-57 -225 -127z"/>
</g>
</svg>
